<?xml version="1.0" encoding="UTF-8"?>
<svg id="Logo" xmlns="http://www.w3.org/2000/svg" version="1.1" xmlns:xlink="http://www.w3.org/1999/xlink" viewBox="0 0 3246.7 851.12">
  <defs>
    <linearGradient id="Degradado_sin_nombre_7" data-name="Degradado sin nombre 7" x1="48.77" y1="615.81" x2="582.18" y2="82.39" gradientUnits="userSpaceOnUse">
      <stop offset="0" stop-color="#f20f8c"/>
      <stop offset=".1" stop-color="#f21885"/>
      <stop offset=".26" stop-color="#f43175"/>
      <stop offset=".47" stop-color="#f65a59"/>
      <stop offset=".71" stop-color="#fa9233"/>
      <stop offset=".98" stop-color="#feda03"/>
      <stop offset="1" stop-color="#ffe000"/>
    </linearGradient>
    <linearGradient id="Degradado_sin_nombre_6" data-name="Degradado sin nombre 6" x1="36.53" y1="701.74" x2="708.57" y2="701.74" gradientUnits="userSpaceOnUse">
      <stop offset="0" stop-color="#2e4292"/>
      <stop offset=".74" stop-color="#359cd6"/>
    </linearGradient>
  </defs>
  <g id="Web">
    <g>
      <polygon id="Linea_Blanca" data-name="Linea Blanca" points="36.53 617.53 36.54 603.57 70.82 604.07 87.18 606.05 97.81 608.02 104.77 607.93 463.8 547.27 655.07 523.58 712.07 560.8 708.57 573.68 686.81 578.82 668.83 582.21 473.04 605.2 341.58 646.95 149.18 674.04 44.8 640.18 36.53 617.53" fill="#fff" stroke-width="0"/>
      <path id="Atardecer" d="M728.08,425.56v1.71c0,.57,0,1.13,0,1.71v.04c-.01,2.27-.04,4.53-.07,6.79-.02,1.13-.04,2.26-.06,3.39-.07,3-.15,6-.25,8.98-.08,2.41-.18,4.81-.3,7.2-.02.39-.04.77-.06,1.16-.04.96-.09,1.92-.14,2.87,0,.07,0,.13-.01.2-.06,1.02-.11,2.05-.18,3.06-.02.36-.04.71-.07,1.06-.06,1.03-.13,2.06-.19,3.09,0,.06,0,.12-.01.18-.08,1.19-.16,2.37-.25,3.55-.09,1.24-.18,2.49-.28,3.72-.07.78-.13,1.57-.19,2.35-.03.4-.07.81-.1,1.21-.05.59-.1,1.17-.15,1.75-.04.43-.08.87-.11,1.3-.02.29-.05.58-.08.86-.1,1-.19,1.99-.28,2.99-.02.24-.05.48-.07.72-.11,1.08-.22,2.16-.33,3.23-.25,2.41-.52,4.82-.8,7.2-.14,1.18-.28,2.35-.43,3.52,0,.02,0,.04,0,.07-.11.85-.22,1.69-.33,2.53,0,.04,0,.07-.01.1-.08.6-.16,1.21-.24,1.81-.02.21-.05.4-.08.61-.07.6-.16,1.2-.24,1.8-.16,1.18-.33,2.36-.5,3.53-.03.22-.07.44-.1.66-.1.72-.21,1.45-.32,2.17-.11.74-.22,1.48-.34,2.23-.11.74-.23,1.47-.34,2.2-.15.92-.3,1.84-.45,2.76-.12.75-.25,1.49-.37,2.23-.21,1.21-.42,2.42-.63,3.62-.02.09-.03.17-.05.27-.02.12-.04.24-.06.36-.04.22-.08.44-.12.66-.06.34-.12.68-.18,1.02-.08.43-.16.86-.24,1.29-.09.48-.18.95-.27,1.42-.07.34-.13.69-.2,1.03-.15.8-.31,1.59-.46,2.38-.16.8-.31,1.59-.47,2.38-.07.36-.14.71-.22,1.06-.22,1.11-.45,2.21-.69,3.32-.22,1.07-.45,2.14-.69,3.2-.04.21-.08.4-.13.6-.23,1.03-.46,2.06-.69,3.1-.18.77-.35,1.54-.53,2.32-.33,1.43-.67,2.85-1.01,4.27-.1.43-.21.86-.31,1.29-.1.4-.2.81-.3,1.21-.16.65-.32,1.31-.49,1.96-.16.66-.33,1.31-.5,1.96l-.35-.08c-95.11-23.1-217.88,8.58-326.2,36.53-32.07,8.28-62.36,16.09-89.9,21.93-107.11,22.72-205.86.72-255.19-14.41l-3.9-1.2V19.74l8.53-5.97h312.32c.53,0,1.05,0,1.57,0,.54,0,1.09,0,1.63.01h.24c1.3.01,2.58.02,3.87.05h.04c1.38.02,2.75.05,4.13.08.2,0,.4,0,.6.01.48.01.97.02,1.45.04.68.02,1.36.04,2.04.07,1.35.04,2.71.09,4.06.14,1.33.06,2.66.12,3.99.19.13,0,.25.01.37.02,1.13.06,2.26.12,3.38.19.13,0,.27.02.4.02,1.24.07,2.47.15,3.71.23,1.13.07,2.27.16,3.4.24.38.03.76.05,1.14.09,1.06.08,2.1.17,3.15.26.63.05,1.27.11,1.89.17.63.05,1.26.11,1.89.17.24.02.48.04.71.07.05,0,.1,0,.14.01.05,0,.1,0,.16.02.71.06,1.41.13,2.11.21.89.08,1.78.18,2.66.28.93.1,1.85.21,2.77.31.92.1,1.83.21,2.75.33,1.08.13,2.16.27,3.24.41.1,0,.19.02.29.04.66.08,1.32.17,1.97.26.71.1,1.41.19,2.12.29,1.08.16,2.15.31,3.23.47.43.07.87.13,1.3.2.78.11,1.55.24,2.33.36.11.02.22.04.34.05.16.02.32.05.48.08.1.02.2.03.3.05.94.15,1.89.31,2.83.47,1.03.17,2.05.35,3.08.53.42.07.83.15,1.24.22.85.16,1.7.31,2.54.47.02,0,.05,0,.08.01.91.17,1.82.35,2.73.52.02,0,.03,0,.05.01.53.1,1.04.21,1.56.31.81.16,1.63.33,2.44.49,1.13.24,2.26.48,3.39.72.66.14,1.32.28,1.97.43,2.14.48,4.28.97,6.41,1.48,2.1.51,4.18,1.04,6.26,1.58.45.12.9.25,1.35.37.65.17,1.29.34,1.92.52.96.26,1.92.51,2.87.78,2.02.56,4.04,1.15,6.03,1.74,1.98.59,3.95,1.21,5.91,1.83,1.94.62,3.88,1.26,5.8,1.91,1.91.65,3.81,1.3,5.7,1.99,1.86.67,3.72,1.36,5.58,2.06,1.83.69,3.66,1.41,5.48,2.14,1.8.72,3.6,1.45,5.38,2.2,1.77.74,3.53,1.5,5.28,2.27,1.73.77,3.46,1.54,5.18,2.34,1.7.79,3.4,1.59,5.09,2.41,1.67.81,3.34,1.63,5,2.47,1.64.83,3.28,1.67,4.91,2.53,1.62.85,3.22,1.71,4.81,2.59,1.59.87,3.17,1.76,4.74,2.65,1.56.89,3.11,1.79,4.65,2.71,1.53.91,3.06,1.83,4.58,2.76,1.5.93,3,1.87,4.5,2.82,1.48.95,2.94,1.91,4.41,2.88,1.45.97,2.9,1.94,4.34,2.93,1.43.98,2.85,1.97,4.27,2.98,1.41,1,2.81,2.01,4.2,3.03,1.38,1.01,2.76,2.04,4.13,3.08,1.36,1.03,2.71,2.07,4.06,3.13,1.33,1.05,2.67,2.11,3.99,3.17,1.32,1.06,2.62,2.14,3.92,3.23,1.29,1.07,2.58,2.17,3.85,3.27,1.27,1.09,2.53,2.2,3.8,3.31,1.25,1.11,2.49,2.23,3.73,3.35,1.23,1.12,2.45,2.26,3.67,3.4,1.21,1.13,2.41,2.28,3.61,3.44,1.19,1.15,2.37,2.31,3.55,3.49,1.17,1.16,2.33,2.34,3.49,3.52,1.15,1.18,2.3,2.36,3.43,3.56,1.13,1.19,2.26,2.39,3.39,3.6,1.11,1.21,2.22,2.42,3.32,3.64.22.25.44.48.66.73.88.98,1.74,1.97,2.61,2.95,1.09,1.23,2.15,2.47,3.22,3.72,1.06,1.24,2.12,2.5,3.16,3.75,1.04,1.26,2.08,2.52,3.11,3.79,1.03,1.27,2.05,2.55,3.06,3.83,1.01,1.28,2.01,2.56,3,3.86.99,1.29,1.98,2.59,2.95,3.9.98,1.31,1.94,2.62,2.9,3.94.96,1.32,1.91,2.64,2.85,3.98.94,1.33,1.88,2.67,2.79,4.01.92,1.35,1.83,2.7,2.74,4.05s1.8,2.72,2.68,4.09c.89,1.37,1.76,2.75,2.63,4.13.87,1.38,1.73,2.77,2.58,4.16.85,1.39,1.7,2.79,2.53,4.2.83,1.41,1.66,2.82,2.47,4.24.81,1.42,1.62,2.84,2.42,4.27.8,1.43,1.59,2.87,2.37,4.31.78,1.45,1.55,2.9,2.32,4.35.76,1.45,1.51,2.91,2.26,4.38.74,1.47,1.48,2.94,2.21,4.42.73,1.48,1.45,2.96,2.16,4.46.71,1.49,1.41,2.99,2.11,4.5.69,1.5,1.37,3.02,2.05,4.53.68,1.52,1.34,3.04,2,4.57.66,1.53,1.3,3.07,1.94,4.61.63,1.54,1.27,3.09,1.89,4.64.45,1.11.88,2.23,1.31,3.34.37.94.73,1.89,1.09,2.84.31.83.63,1.66.94,2.49l.58,1.56c.1.28.2.55.3.83.32.87.64,1.76.95,2.64.16.45.32.89.48,1.35.1.29.21.59.31.88.08.23.16.46.24.7.25.71.49,1.42.74,2.13.28.81.56,1.64.84,2.46.02.05.04.11.05.16.57,1.68,1.12,3.36,1.67,5.05.63,1.96,1.25,3.92,1.86,5.9.7,2.3,1.39,4.61,2.06,6.93l3.09,11.34c.02.09.05.18.07.27.14.55.28,1.1.42,1.66.37,1.46.74,2.93,1.1,4.4.18.76.37,1.53.55,2.29.13.56.27,1.12.4,1.68.25,1.06.49,2.11.74,3.18,0,0,0,.01,0,.02.01.07.03.14.04.21.21.94.42,1.88.63,2.82.01.06.02.12.04.18.4,1.83.79,3.66,1.17,5.5.19.95.39,1.91.58,2.86.1.46.19.92.28,1.38.02.09.04.17.05.27.3,1.53.59,3.08.88,4.63.18.94.36,1.89.53,2.84.25,1.4.5,2.81.74,4.21.21,1.21.42,2.43.62,3.66.2,1.19.4,2.4.59,3.6.01.06.02.12.03.18.02.16.05.31.07.46.34,2.23.69,4.47,1.01,6.73.19,1.39.39,2.78.58,4.18.19,1.39.37,2.79.54,4.19.17,1.38.34,2.76.51,4.15.01.04.01.08.02.11.16,1.39.33,2.79.48,4.19.01.07.02.14.02.21.31,2.76.59,5.54.85,8.33.13,1.28.24,2.56.35,3.86.34,3.87.65,7.77.91,11.69.07,1.1.14,2.2.21,3.31.07,1.15.14,2.3.21,3.46.13,2.31.24,4.63.34,6.96.05,1.16.1,2.33.14,3.5.05,1.16.09,2.34.13,3.51.04,1.17.08,2.35.11,3.52.07,2.36.11,4.72.16,7.1.02,1.18.03,2.36.05,3.54v.06c.01,1.18.02,2.37.03,3.56,0,1.19,0,2.38,0,3.58Z" fill="url(#Degradado_sin_nombre_7)" stroke-width="0"/>
      <path d="M696.3,571.06c-3.68-.69-7.4-1.31-11.16-1.84-3.42-.49-6.87-.91-10.35-1.28-3.23-.34-6.49-.63-9.77-.87-3.09-.23-6.2-.42-9.34-.57-2.96-.14-5.94-.23-8.94-.29-2.87-.06-5.75-.09-8.65-.09-2.79,0-5.59.03-8.4.09-2.71.06-5.43.15-8.16.26-2.65.1-5.31.23-7.98.38-2.6.15-5.2.31-7.82.5-2.55.18-5.1.38-7.67.6-2.5.22-5.01.45-7.53.7-2.46.24-4.93.51-7.41.78-2.43.27-4.86.56-7.3.86-2.4.29-4.8.6-7.2.93-2.37.32-4.74.65-7.12.99-2.34.34-4.69.68-7.03,1.04-2.32.35-4.64.72-6.96,1.1-2.29.37-4.59.75-6.89,1.15-2.27.39-4.55.78-6.83,1.19-2.25.4-4.51.81-6.77,1.23-2.24.41-4.48.84-6.71,1.27-2.22.43-4.44.86-6.66,1.3-2.21.44-4.41.88-6.62,1.34-2.19.45-4.38.9-6.58,1.37-2.18.46-4.36.92-6.54,1.39-2.17.47-4.33.94-6.5,1.42-2.16.48-4.31.96-6.47,1.44-2.15.48-4.29.97-6.44,1.46-2.14.49-4.27.99-6.41,1.48-2.13.5-4.26,1-6.38,1.5-2.12.5-4.24,1.01-6.36,1.52-2.11.51-4.23,1.02-6.33,1.53-2.11.51-4.21,1.03-6.31,1.55-2.1.52-4.2,1.04-6.3,1.56-2.1.52-4.19,1.05-6.28,1.57-2.09.53-4.18,1.05-6.27,1.58-2.09.53-4.18,1.06-6.26,1.59-2.09.53-4.17,1.06-6.25,1.6-2.09.53-4.16,1.07-6.24,1.6-2.08.54-4.16,1.07-6.23,1.6-2.08.54-4.16,1.07-6.23,1.61-2.08.54-4.16,1.07-6.23,1.61-2.08.54-4.16,1.07-6.23,1.61-2.08.54-4.16,1.07-6.23,1.6-2.09.54-4.17,1.07-6.24,1.6-2.09.54-4.17,1.07-6.25,1.6-2.09.53-4.18,1.06-6.26,1.59-2.1.53-4.19,1.06-6.27,1.58-2.11.53-4.2,1.05-6.29,1.57-2.11.52-4.22,1.04-6.31,1.55-2.12.52-4.23,1.03-6.33,1.54-2.13.51-4.25,1.02-6.36,1.52-2.14.51-4.27,1.01-6.39,1.49-2.16.5-4.3.99-6.43,1.47-2.17.49-4.33.97-6.47,1.44-2.01.44-4.01.87-5.99,1.29-.18.04-.36.07-.53.11-2.21.47-4.41.91-6.61,1.34-2.25.44-4.49.86-6.72,1.26-2.29.41-4.57.8-6.84,1.18-2.33.38-4.66.74-6.98,1.09-2.37.35-4.74.69-7.09,1-2.42.32-4.84.62-7.24.9-2.46.29-4.92.56-7.37.81-2.52.25-5.03.48-7.53.7-2.57.22-5.13.42-7.67.6-2.63.18-5.24.34-7.85.48-2.68.14-5.35.26-8.01.36-2.74.1-5.47.18-8.19.24-2.81.06-5.6.09-8.38.1-2.88.01-5.74,0-8.59-.04-2.95-.04-5.88-.1-8.8-.19-3.03-.09-6.04-.21-9.02-.35-3.11-.15-6.2-.32-9.26-.52-3.2-.21-6.38-.44-9.52-.7-3.31-.27-6.57-.57-9.81-.9-3.41-.34-6.78-.71-10.11-1.11-3.53-.42-7.01-.87-10.45-1.35-3.66-.51-7.26-1.04-10.81-1.6-3.81-.6-7.55-1.23-11.22-1.89-3.98-.71-7.87-1.45-11.69-2.21-4.17-.83-8.24-1.7-12.21-2.58-4.4-.98-8.68-1.98-12.82-3-4.69-1.16-9.21-2.33-13.54-3.51-5.08-1.38-9.9-2.77-14.45-4.14-.85-.26-1.7-.51-2.53-.77v213.86l8.53,5.97h312.33c1.04,0,2.07,0,3.11-.02,2.8-.02,5.58-.06,8.35-.12,2.73-.06,5.45-.15,8.15-.26,2.67-.11,5.32-.24,7.96-.4,2.61-.15,5.2-.32,7.78-.52,2.54-.19,5.07-.42,7.59-.65,2.49-.24,4.97-.49,7.44-.76,2.43-.27,4.85-.57,7.26-.89,2.38-.31,4.76-.64,7.12-.99,2.33-.35,4.65-.72,6.95-1.1,2.28-.38,4.55-.78,6.81-1.2,2.23-.41,4.46-.85,6.67-1.3,2.19-.45,4.36-.91,6.53-1.4,2.15-.48,4.28-.97,6.41-1.48,2.1-.51,4.19-1.04,6.27-1.58,2.06-.54,4.11-1.09,6.15-1.66,2.02-.57,4.03-1.15,6.03-1.75,1.98-.59,3.95-1.21,5.91-1.83,1.94-.62,3.88-1.26,5.8-1.91,1.91-.65,3.81-1.3,5.69-1.98,1.87-.67,3.73-1.36,5.58-2.07,1.83-.7,3.66-1.41,5.48-2.13,1.8-.72,3.6-1.45,5.38-2.2,1.77-.74,3.53-1.5,5.28-2.28,1.73-.77,3.46-1.55,5.18-2.34,1.7-.79,3.4-1.59,5.09-2.41,1.67-.81,3.34-1.63,5-2.47,1.64-.83,3.28-1.67,4.91-2.53,1.61-.85,3.22-1.72,4.82-2.6,1.59-.87,3.16-1.76,4.74-2.65,1.56-.89,3.11-1.79,4.65-2.71,1.53-.91,3.06-1.83,4.58-2.77,1.51-.93,3-1.87,4.5-2.82,1.48-.95,2.95-1.91,4.41-2.88,1.45-.96,2.9-1.94,4.34-2.93,1.43-.98,2.85-1.98,4.27-2.98,1.41-1,2.8-2.01,4.2-3.03,1.38-1.02,2.76-2.04,4.13-3.08,1.36-1.03,2.71-2.07,4.06-3.13,1.34-1.05,2.67-2.1,3.99-3.18,1.31-1.06,2.62-2.14,3.92-3.23,1.29-1.08,2.58-2.17,3.85-3.27,1.27-1.09,2.53-2.2,3.79-3.31,1.25-1.11,2.49-2.23,3.73-3.36,1.23-1.12,2.45-2.26,3.67-3.4,1.21-1.14,2.41-2.28,3.61-3.44,1.19-1.15,2.37-2.31,3.55-3.48,1.17-1.16,2.33-2.34,3.49-3.52,1.15-1.18,2.3-2.37,3.44-3.56,1.13-1.19,2.26-2.39,3.38-3.6,1.11-1.2,2.22-2.42,3.33-3.64.22-.24.44-.48.66-.73.88-.98,1.74-1.97,2.61-2.95,1.08-1.23,2.15-2.47,3.22-3.72,1.06-1.24,2.12-2.5,3.16-3.75,1.05-1.26,2.08-2.52,3.11-3.79,1.03-1.27,2.05-2.55,3.06-3.83,1.01-1.28,2.01-2.57,3.01-3.86s1.98-2.59,2.95-3.9c.98-1.31,1.94-2.62,2.9-3.94.96-1.32,1.91-2.64,2.85-3.97.94-1.33,1.87-2.67,2.8-4.01.92-1.34,1.83-2.7,2.74-4.05.9-1.36,1.8-2.72,2.69-4.09.89-1.37,1.76-2.74,2.63-4.13.87-1.38,1.73-2.77,2.58-4.16.85-1.39,1.69-2.79,2.53-4.2.83-1.41,1.66-2.82,2.47-4.24.82-1.42,1.62-2.84,2.42-4.27s1.59-2.87,2.37-4.31c.78-1.44,1.55-2.89,2.32-4.35s1.52-2.92,2.26-4.38c.75-1.47,1.48-2.94,2.21-4.42.73-1.48,1.45-2.96,2.16-4.46.71-1.49,1.41-2.99,2.1-4.5.69-1.5,1.37-3.02,2.05-4.53.67-1.52,1.34-3.04,2-4.57.66-1.53,1.3-3.07,1.94-4.61.64-1.54,1.27-3.09,1.89-4.65.62-1.55,1.23-3.12,1.84-4.68.6-1.57,1.2-3.14,1.78-4.72s1.16-3.16,1.73-4.76c.57-1.59,1.13-3.19,1.68-4.79.55-1.6,1.09-3.21,1.63-4.83.53-1.62,1.06-3.24,1.57-4.87.52-1.63,1.02-3.26,1.52-4.9.5-1.64.99-3.29,1.47-4.94-4.03-.98-8.13-1.85-12.28-2.62Z" fill="url(#Degradado_sin_nombre_6)" stroke-width="0"/>
      <path d="M604.85,421.04c-.14.12-.5.38-.38.66.25.6,1.81,1.11,2.48,1.16,0,0-1.71.92-3.84,1.94-2.13,1.02-2.94,1.65-3.75,2.28-.81.63-4.35,1.17-5.7,1.8-1.35.63-.6.66-1.29.93-.69.27-6.14,2.37-6.27,2.43-.14.06.04.23.69.32.65.09,1.04-.15,1.2-.16.17-.02-.45.27-.54.33-.09.06,1.52.01,4.31-.09s6.99-1.46,10.51-1.07c3.51.39,13.6,1.47,16.96.99,3.36-.48,10.06-3.18,14.11-4.26,4.05-1.08,8.48-3.14,9.62-3.08,1.14.06,4.07.69,4.68,1.08.62.39.39.71.39.71,0,0,.32-.38.33-.96s-.18-.92-.65-1.26c-.47-.35-.69-.17-1.23-.33-.54-.17-1.97-.59-1.97-.59,0,0-.12-.15-.18-.39-.06-.24-.51-.27-.81-.57-.3-.3-.3-.78-.51-1.41-.21-.63-1.23-1.5-3.81-2.58-2.58-1.08-6.48-1.2-6.48-1.2,0,0,.3-2.25,2.64-4.65,2.34-2.4,9.43-6.15,10.18-6.93.75-.78-2.37-.24-8.46,1.59-6.09,1.83-14.11,5.85-14.11,5.85,0,0-1.68-1.14-4.32-7.74-2.64-6.6-3.18-13.03-4.02-14.83-.84-1.8-9-8.58-10.45-10.33-1.44-1.74-3.36-2.58-10.93-7.38-7.56-4.8-18.97-6.66-19.36-6.42-.39.24,1.2,1.7,1.2,1.7,0,0-.56.07-.66.12-.11.04.14.39.68,1.1s1.94,1.22,1.94,1.22c0,0-.44.04-.66.18-.23.14,0,.17.45.87.45.71,2.57,1.77,2.57,1.77,0,0-.33.01-.69.26-.36.24.03.07.42.59.39.51,2.76,2.09,2.76,2.09,0,0-.28.09-.56.17-.27.07-.17.14.13.72.3.59,3.11,2.43,3.11,2.43,0,0-.47.03-.57.09-.11.06.05.35.84.84.8.5,2.49,1.46,2.54,1.53.04.08-.23.09-.42.24-.2.15,0,.27.87,1.16.87.89,2.61,2.43,2.87,2.57.25.14.95-.12,1.14-.17.2-.04-.12.38-.23.62s0,.35.9.8c.9.45,1.67,1.04,1.97,1.53s.06.6.38,1.22c.32.62.68.45.95.69.27.24,0,.12.18,1.02.18.9.84.92.84.92,0,0,0,.27.3,1.23.3.96.48.39.63.75.15.36.21.48.33,1.11.12.63-.09.72.33,1.41s.54.81.75,1.44c.21.63-.18.69.09,1.53.27.84.51.18.57.33s-.18.3.06,1.32c.24,1.02.39.27.54.57s-.24.42-.06,1.11.6.51.78.81c.18.3-.12.21-.03,1.14s.66.99.66.99c0,0-.03.15.12.84.15.69.78,1.08.81,1.29s-.12.12-.09.63.78.81.87,1.05c.09.24-.15.3-.06,1.02.09.72.81.96.87,1.14.06.18-.21.51-.07,1.23.14.72.81.81.95,1.2.14.39-.33.47-.17,1.29s.74,1.1.74,1.1c0,0-.77,1.62-.87,1.82-.11.2-.29.35-.3.68-.01.33.44.8.3.92Z" fill="#231f20" fill-rule="evenodd" stroke-width="0"/>
      <path d="M596.49,223.91c-1.24,0-2.3-.17-3.22-.46-6.86-1.01-8.08-5.96-8.3-7.46-.51-3.63,1.51-7.26,4.86-8.75.31-.14.36-.16,7.64-2.97,1.24-.48,2.41-.93,3.28-1.27,1.08-.95,2.27-1.59,3.4-2.12,1.87-.87,4.2-1.46,6.66-2.08.97-.24,2.5-.63,3.29-.89,1.57-1.19,3.19-2.32,5.91-3.74.01-.58.08-1.17.22-1.77-.03-.38-.04-.77-.02-1.18.08-1.81.64-3.22,1.14-4.16-.06-.23-.11-.46-.16-.7-.1-.49-.16-.96-.2-1.41-.57-.93-1.05-2.06-1.31-3.44-.06-.31-.1-.61-.13-.89-.74-1.19-1.22-2.48-1.43-3.88-.69-1.01-1.3-2.28-1.54-3.85-.43-.72-.83-1.59-1.12-2.59-.87-1.26-1.51-2.82-1.76-4.67-.64-1.01-1.03-2.04-1.26-2.93-.11-.43-.19-.85-.25-1.24-.28-.64-.52-1.35-.71-2.16-.03-.13-.06-.25-.08-.37-.37-.64-.69-1.35-.94-2.15-.44-1.38-.59-2.56-.59-3.57l-.22-.35c-1.15-1.89-1.55-3.44-1.68-4.76-.62-.86-1.18-1.94-1.59-3.26-.87-.98-1.58-2.19-2.05-3.63-.69-.72-1.28-1.55-1.76-2.5-.28-.55-.5-1.07-.67-1.56-.05-.03-.11-.06-.17-.09-1.52-.76-2.69-1.58-3.59-2.44-.01,0-.03-.01-.04-.02-2.31-1.22-7.44-6.35-7.49-6.4l-.71-.71c-.72-.72-1.69-1.69-2.42-3.02-.39-.23-.75-.45-1.05-.64-.97-.61-3.32-2.07-4.63-4.64-3.62-2.73-4.28-4.01-4.79-5.01l-.2-.37c-.24-.45-.45-.9-.62-1.34-.99-.77-1.62-1.34-2.05-1.78-1.33-.93-2.34-2.18-2.94-3.62-1.7-1.38-2.36-2.41-2.66-2.88-.09-.15-.17-.24-.22-.3-.5-.62-.91-1.25-1.23-1.9-.52-.47-1-.98-1.44-1.55-1.16-1.52-2.63-3.44-2.97-5.92-.83-1.53-1.31-3.25-1.12-5.22.25-2.67,1.71-5,3.99-6.41,1.35-.83,2.91-1.26,4.62-1.26,4.58,0,26.32,4.23,41.05,13.58,4.11,2.61,7.35,4.61,9.93,6.2,6.89,4.25,10.04,6.19,12.86,9.6.75.9,4.2,4.04,6.72,6.34,9,8.21,12.82,11.88,14.34,15.14,1.01,2.17,1.57,4.9,2.42,9.02,1.09,5.29,2.57,12.54,5.44,19.71,1.3,3.26,2.44,5.67,3.36,7.43,5.76-2.65,14.4-6.4,21.84-8.64,13.47-4.05,16.69-4.05,17.9-4.05,5.72,0,7.86,4,8.38,5.22,1.35,3.18.65,6.76-1.83,9.34-1.2,1.25-2.74,2.21-7.03,4.82-2.57,1.57-6.3,3.84-9.13,5.82.45.16.88.33,1.31.51,7,2.93,10.56,5.9,11.9,9.91.02.01.03.03.05.04.26.08.51.15.73.22,1.11.1,3.15.43,5.31,2.03,3.88,2.88,4.62,6.6,4.55,9.22-.09,3.6-1.82,6.03-2.55,6.9-1.62,1.93-3.95,2.93-6.29,2.93-1.76,0-3.53-.56-5.03-1.72-.38-.3-.73-.62-1.05-.96-1.13-.27-2.49-.54-3.39-.67-1.11.32-3.28,1.12-4.94,1.72-3.33,1.22-7.48,2.73-11.53,3.81-2.83.75-6.52,2.01-10.44,3.33-6.61,2.24-12.85,4.35-17.46,5.01-1.47.21-3.31.31-5.61.31-6.16,0-15.86-.73-28.84-2.17-.51-.06-1.07-.09-1.68-.09-2.73,0-5.92.56-9.01,1.1-2.86.5-5.57.97-8.16,1.07-4.27.16-6.6.23-7.81.23Z" fill="#231f20" fill-rule="evenodd" stroke-width="0"/>
      <path d="M110.39,167.85c-.05,6.78,2.32,12.35,2.63,14.85.31,2.5-1.65,8.23-5.2,18.34-3.55,10.11-12.36,28.45-19.18,36.62-6.82,8.17-10.01,12.17-10.62,10.98s.66-4.09.51-4.21-.84.09-.42-1.19,1.07-2.75,1.07-2.75c0,0-.67.33-.68-.59-.01-.92,2-6.05,2-6.05,0,0-1.12,1-1.01-.19.11-1.19,1.51-5.02,1.51-5.02,0,0-.86-.06-.11-2.31.75-2.25,1.5-4.3,1.5-4.3,0,0-.8-.25-.31-1.37.5-1.12,1.44-3.18,1.71-3.93.27-.75-.72-.31.19-2.5.92-2.18,1.65-3.49,1.65-3.49,0,0-.62.44.15-1.68.77-2.12,1.42-2.87,1.44-3.87s-.46-.37.36-2.43c.82-2.06.91-2.62.91-2.62,0,0,.03-2.12.24-3.12.21-1-.58-.94-.59-2.71s.39-1.62.02-2.21c-.37-.59-.76-.28-.86-1.97-.1-1.68.1-2.62-.04-2.9-.14-.28-.63-.53-.81-1.37-.17-.84-.22-1.22-.22-1.22,0,0-.69.03-.69-1.47,0-1.5.2-2.31.11-2.53-.1-.22-.88-1.22-.56-2.15.32-.94.35-.81.26-1.62-.09-.81-.06-1.12.04-2.18.11-1.06-.18-.94.01-2.75.19-1.81.4-2.81.4-2.81,0,0,1.74-7.17,2.4-9.36.67-2.18.63-2.5.63-2.5,0,0-.37-.47-.63-1.68-.26-1.22-.17-1.53-.36-1.62s-12.12-.84-15.74-.84-3.99-.12-7.79.44c-3.81.56-5.23.53-7.04-.03-1.81-.56-.77-2.06.19-2.59.96-.53,1.16-.37,1.56-.9.4-.53,1.38-1.15,1.85-1.37.47-.22,6.78-2.18,13.62-3.68,6.84-1.5,7.06-.94,12.09-3.12,5.03-2.18,7.84-3.74,7.84-3.74,0,0-.63.03-.92-1.06-.29-1.09,1.43-2.34,1.32-2.84-.11-.5-.84-.47.04-1.62.88-1.15,2.25-2.37,2.6-2.62.35-.25,1.07-.47.66-.94-.4-.47-.08-.5.52-1.87.6-1.37,1.32-2.06,1.32-2.06,0,0-.29-1.56.15-2.34s.86-1.19.84-1.68c-.02-.5.08-1.19.71-1.9s-.11-.62.38-1.72c.49-1.09.69-1.25.77-1.53.08-.28-.5-.22.33-1.4.83-1.19,1.07-1.62,1.07-1.62,0,0,.29-.81,1.05-1.78.77-.97.81-.69,1.41-1.5s.1-.69,1.24-1.65c1.14-.97,1.51-1.19,1.8-1.56.29-.37,1.18-2,2.26-2.87,1.08-.87,1.16-.69,1.86-1.44.71-.75.37-.56,1.18-1.12.81-.56.84-.44,1.4-1,.56-.56,1.34-1.47,1.34-1.47,0,0,1.52-1.22,1.57-1.4.05-.19-.44-.66.47-1.68s1.8-1.31,2.05-2.12c.26-.81-.14-.5.56-1.81.71-1.31.82-1.5.92-1.75.1-.25.45-1.5.73-2.06.28-.56,1.12-2.81,1.15-3.03.03-.22-.15-1.03.12-2.12.27-1.09.63-1.5.63-1.5,0,0,.35-3.74,1.05-4.93.7-1.19.87-1.12.87-1.12,0,0-.26-2,.59-2.81s1.02-1,1.02-1c0,0,.03-2.37.88-3.62s1.2-1.06,1.2-1.06c0,0,.19-2.15.91-2.96.72-.81,1.14-1.06,1.14-1.06,0,0,.5-2.71,1.09-4.18.59-1.47.42-1.75,1.22-1.59.8.16,5.64,5.21,7.35,13.44,1.71,8.24,2.01,13.04,1.48,15.85-.53,2.81-1.64,2.31-2.27,6.61-.63,4.3-1.66,8.14-2.64,9.33-.98,1.19-5.53,4.21-10.63,10.45-5.1,6.24-5.2,7.74-5.8,12.17-.6,4.43-.71,8.55.62,9.48,1.33.94,13.17,4.06,13.76,5.61.6,1.56-.14,2.99.44,3.71s4.37.76,5.66,1.76c1.28,1,1.26,1.43.98,2.43-.28,1-.84,1.19-.81,1.06.03-.12.06-.95-.43-1.26-.49-.31-5.05-.97-6.9-.72-1.85.25-5.39,2.25-11.69,3.81-6.3,1.56-9.3,2.28-9.3,2.28-3.41,6.27-5.36,8.33-5.41,15.11Z" fill="#231f20" fill-rule="evenodd" stroke-width="0"/>
      <path id="Garita" d="M185.56,362.54c0,.19-.03.37-.03.56,0,6.34,5.11,11.48,11.44,11.54v254.29c31.15.18,64.47-2.5,98.66-9.75,27.05-5.74,56.77-13.39,88.22-21.5v-182.03c0-25.28,20.49-45.78,45.78-45.78h0c25.28,0,45.78,20.49,45.78,45.78v159.34c15.26-3.47,30.57-6.73,45.84-9.62v-190.74c6.33-.06,11.44-5.2,11.44-11.54,0-.19-.02-.37-.03-.56,15.76-2.88,27.7-16.67,27.7-33.26,0-18.68-15.14-33.82-33.82-33.82h-6.52c-9.27-75.6-70.58-135.1-147.01-141.59,8.9-4.91,14.94-14.38,14.94-25.27,0-15.93-12.91-28.84-28.84-28.84s-28.84,12.91-28.84,28.84c0,10.89,6.03,20.36,14.94,25.27-76.42,6.49-137.73,65.99-147.01,141.59h-6.52c-18.68,0-33.82,15.14-33.82,33.82,0,16.59,11.95,30.38,27.7,33.26Z" fill="#fff" stroke-width="0"/>
    </g>
    <g id="Texto-2">
      <g>
        <path d="M958.45,113.46c24.13,0,46.75,4.61,67.86,13.83,21.11,9.22,39.54,21.7,55.3,37.45,15.75,15.75,28.24,34.19,37.45,55.3,9.21,21.11,13.83,43.74,13.83,67.86s-4.61,46.75-13.83,67.87c-9.22,21.11-21.7,39.63-37.45,55.55-15.75,15.92-34.19,28.41-55.3,37.45-21.11,9.05-43.74,13.58-67.86,13.58h-135.73V113.46h135.73ZM958.45,393.96c14.41,0,28.06-2.77,40.97-8.3,12.89-5.53,24.21-13.14,33.93-22.87,9.71-9.71,17.34-20.94,22.88-33.68,5.53-12.73,8.3-26.47,8.3-41.22s-2.76-28.06-8.3-40.97c-5.53-12.89-13.15-24.21-22.88-33.93-9.72-9.71-21.03-17.34-33.93-22.88-12.9-5.53-26.56-8.3-40.97-8.3h-67.36v212.14h67.36Z" fill="#2a62ac" stroke-width="0"/>
        <path d="M1280.68,113.46h131.7v68.37h-199.06v68.37h164.89v68.37h-164.89v75.4h199.06v68.36h-267.43V113.47h135.73Z" fill="#2a62ac" stroke-width="0"/>
        <path d="M1564.21,189.86c-14.41-4.68-26.64-7.11-36.69-7.28-10.05-.16-18.27,1.09-24.63,3.77-6.37,2.69-10.98,6.28-13.83,10.81-2.85,4.53-4.27,8.8-4.27,12.82,0,8.04,4.94,14.75,14.83,20.11,9.88,5.37,21.69,10.48,35.44,15.33,13.74,4.87,28.16,10.15,43.23,15.83,15.08,5.7,27.97,12.9,38.71,21.61,10.73,8.72,18.68,18.93,23.88,30.66,5.19,11.73,8.05,23.8,8.55,36.19.5,12.4-1,24.46-4.53,36.19-3.52,11.73-8.63,22.11-15.33,31.16s-15.08,16.59-25.13,22.62c-10.05,6.03-22.62,11.73-37.7,17.09-14.75,3.69-29.58,5.45-44.49,5.28-14.91-.16-29.41-2.09-43.49-5.78-14.08-3.68-27.64-9.21-40.72-16.59-13.07-7.36-24.98-16.41-35.69-27.14l44.74-51.77c11.06,11.06,23.29,19.44,36.69,25.13,17.09,4.7,31.24,6.87,42.47,6.53,11.23-.33,20.11-2.18,26.64-5.53,6.53-3.35,11.14-7.61,13.83-12.82,2.68-5.19,4.02-10.13,4.02-14.83-.67-9.71-5.7-17.76-15.08-24.13-9.38-6.36-20.7-12.31-33.93-17.84-13.25-5.53-26.98-11.23-41.22-17.09-14.25-5.86-26.56-12.82-36.94-20.86-10.4-8.05-18.18-17.42-23.38-28.16-5.2-10.73-8.38-21.78-9.55-33.18-1.17-11.39-.42-22.44,2.26-33.18,2.68-10.73,6.7-20.11,12.06-28.16,5.36-8.38,12.31-15.41,20.86-21.11s20.36-11.23,35.44-16.59c15.08-4.02,30.41-5.86,46-5.53,15.58.34,30.66,2.6,45.24,6.78,14.58,4.19,28.49,10.22,41.72,18.1,13.23,7.88,25.21,17.52,35.94,28.91l-49.77,47.25c-10.73-11.06-22.8-19.26-36.19-24.63h.02Z" fill="#2a62ac" stroke-width="0"/>
        <path d="M1889.69,197.41c-13.25-8.38-27.14-13.49-41.72-15.33-14.58-1.84-29.08-.75-43.49,3.27-14.41,4.02-27.39,10.56-38.96,19.61-11.56,9.05-20.95,20.61-28.16,34.69-7.22,14.08-10.81,30-10.81,47.75s3.6,33.68,10.81,47.75c7.2,14.08,16.59,25.64,28.16,34.69,11.56,9.05,24.54,15.58,38.96,19.61,14.41,4.02,28.91,5.03,43.49,3.02,14.58-2.01,28.49-7.11,41.72-15.33,13.23-8.21,24.54-20.02,33.93-35.44l58.32,35.19c-10.05,16.76-22.36,31.26-36.94,43.49-14.58,12.24-30.5,21.86-47.75,28.91-17.27,7.03-35.36,11.15-54.29,12.31-18.93,1.17-37.96-.92-57.05-6.28-18.77-5.03-36.03-12.98-51.77-23.88-15.75-10.89-29.24-23.7-40.47-38.46-11.23-14.74-19.95-31.09-26.14-49.02-6.2-17.92-9.3-36.77-9.3-56.55s3.09-38.21,9.3-56.3c6.2-18.1,14.91-34.52,26.14-49.27,11.23-14.74,24.71-27.56,40.47-38.46,15.75-10.89,33-18.85,51.77-23.88,19.1-5.36,38.12-7.45,57.05-6.28,18.93,1.17,37.02,5.2,54.29,12.06,17.26,6.87,33.18,16.43,47.75,28.66,14.58,12.24,26.89,26.73,36.94,43.49l-58.32,35.69c-9.38-15.41-20.7-27.31-33.93-35.69h0Z" fill="#2a62ac" stroke-width="0"/>
        <path d="M2217.2,113.46h67.86v208.61c-.34,19.44-4.19,37.63-11.56,54.54-7.38,16.93-17.52,31.76-30.41,44.49-12.9,12.74-27.89,22.8-44.99,30.16-17.09,7.38-35.36,11.06-54.8,11.06h-16.59c-19.44,0-37.71-3.68-54.8-11.06-17.09-7.36-32.1-17.42-44.99-30.16-12.9-12.73-23.05-27.56-30.41-44.49-7.38-16.92-11.23-35.1-11.56-54.54V113.46h67.86v206.74c0,10.03,1.93,19.56,5.78,28.6,3.85,9.03,9.13,16.89,15.83,23.58,6.7,6.69,14.58,11.96,23.63,15.81,9.05,3.85,18.6,5.77,28.66,5.77h16.59c10.05,0,19.61-1.92,28.66-5.77,9.05-3.85,16.92-9.12,23.63-15.81,6.7-6.69,11.98-14.56,15.83-23.58,3.85-9.03,5.78-18.56,5.78-28.6V113.46h0Z" fill="#2a62ac" stroke-width="0"/>
        <path d="M2511.27,113.46c15.08,0,28.82,2.77,41.22,8.3,12.39,5.53,23.2,12.9,32.42,22.11,9.21,9.22,16.41,19.78,21.61,31.67,5.19,11.9,8.12,24.3,8.8,37.2.67,12.9-1.17,25.89-5.53,38.96-4.35,13.07-11.56,25.13-21.61,36.19,10.05,11.06,17.26,23.13,21.61,36.19,4.35,13.07,6.2,26.06,5.53,38.96-.67,12.9-3.6,25.31-8.8,37.2-5.2,11.9-12.4,22.46-21.61,31.67-9.22,9.22-20.03,16.59-32.42,22.11-12.4,5.53-26.14,8.3-41.22,8.3h-189.51V113.45h189.51ZM2511.27,253.71c9.71,0,18.1-3.52,25.13-10.56,7.03-7.03,10.56-15.58,10.56-25.64s-3.52-18.1-10.56-25.13c-7.03-7.03-15.42-10.56-25.13-10.56h-121.15v71.88h121.15ZM2511.27,393.96c9.71,0,18.1-3.52,25.13-10.56,7.03-7.03,10.56-15.58,10.56-25.64s-3.52-18.1-10.56-25.13c-7.03-7.03-15.42-10.56-25.13-10.56h-121.15v71.88h121.15Z" fill="#2a62ac" stroke-width="0"/>
        <path d="M2805.36,113.46c14.41,0,27.9,2.77,40.47,8.3,12.57,5.53,23.54,12.99,32.93,22.36,9.38,9.38,16.84,20.45,22.37,33.18,5.53,12.74,8.3,26.31,8.3,40.72v19.1c0,11.73-1.94,23.05-5.78,33.93-3.85,10.9-9.13,20.78-15.83,29.66-6.7,8.88-14.75,16.59-24.13,23.13-9.38,6.53-19.78,11.31-31.17,14.33l76.91,124.17h-79.43l-75.4-120.65h-50.77v120.65h-68.37V113.48h169.91v-.02ZM2841.05,218.02c0-10.05-3.52-18.6-10.56-25.64s-15.42-10.56-25.13-10.56h-101.54v91.49h101.54c9.71,0,18.1-3.52,25.13-10.56s10.56-15.58,10.56-25.64v-19.1Z" fill="#2a62ac" stroke-width="0"/>
        <path d="M3076.31,113.46h131.7v68.37h-199.06v68.37h164.89v68.37h-164.89v75.4h199.06v68.36h-267.43V113.47h135.73Z" fill="#2a62ac" stroke-width="0"/>
      </g>
      <g>
        <path d="M976.37,554.84c-8.86-5.6-18.16-9.02-27.9-10.26-9.76-1.23-19.45-.5-29.09,2.19s-18.33,7.06-26.06,13.11c-7.73,6.05-14.01,13.78-18.83,23.21-4.82,9.42-7.23,20.06-7.23,31.94s2.41,22.54,7.23,31.95c4.82,9.42,11.1,17.14,18.83,23.2,7.74,6.05,16.41,10.43,26.06,13.11,9.63,2.69,19.33,3.36,29.09,2.02,9.75-1.35,19.05-4.76,27.9-10.26,8.86-5.49,16.41-13.39,22.7-23.71l39.01,23.54c-6.73,11.22-14.97,20.91-24.71,29.09-9.75,8.18-20.4,14.62-31.95,19.33-11.55,4.71-23.65,7.45-36.32,8.24-12.66.79-25.39-.62-38.16-4.21-12.56-3.36-24.1-8.69-34.63-15.97-10.54-7.28-19.56-15.86-27.07-25.73-7.51-9.86-13.34-20.79-17.49-32.78-4.15-11.99-6.22-24.6-6.22-37.83s2.07-25.56,6.22-37.66c4.15-12.11,9.97-23.08,17.49-32.95,7.51-9.86,16.53-18.43,27.07-25.73,10.53-7.28,22.08-12.61,34.63-15.97,12.78-3.58,25.5-4.98,38.16-4.21,12.66.79,24.77,3.48,36.32,8.07,11.55,4.59,22.19,10.99,31.95,19.17,9.75,8.18,17.99,17.89,24.71,29.09l-39.01,23.88c-6.28-10.3-13.85-18.27-22.7-23.88h0Z" fill="#2a62ac" stroke-width="0"/>
        <path d="M1108.36,498.69h51.79l90.79,233.37h-51.79l-17.49-45.06h-94.83l-17.49,45.06h-51.79l90.79-233.37h0ZM1104.65,641.27h59.18l-29.59-76-29.59,76h0Z" fill="#2a62ac" stroke-width="0"/>
        <path d="M1363.58,498.69c9.63,0,18.66,1.85,27.07,5.55,8.41,3.7,15.74,8.69,22.02,14.97,6.27,6.28,11.26,13.68,14.97,22.19,3.7,8.53,5.55,17.6,5.55,27.23v12.78c0,7.85-1.29,15.41-3.86,22.7-2.58,7.28-6.11,13.91-10.59,19.83-4.49,5.94-9.87,11.1-16.14,15.47-6.28,4.37-13.23,7.57-20.85,9.59l51.46,83.05h-53.13l-50.44-80.71h-33.96v80.71h-45.73v-233.37h113.66-.02ZM1387.46,568.63c0-6.73-2.36-12.45-7.07-17.14-4.71-4.71-10.32-7.06-16.81-7.06h-67.93v61.2h67.93c6.5,0,12.11-2.36,16.81-7.07,4.71-4.71,7.07-10.42,7.07-17.14v-12.78h0Z" fill="#2a62ac" stroke-width="0"/>
        <path d="M1561.65,498.69v45.73h-50.11v187.64h-45.73v-187.64h-50.1v-45.73h145.94,0Z" fill="#2a62ac" stroke-width="0"/>
        <path d="M1584.52,498.69h51.79l90.79,233.37h-51.79l-17.49-45.06h-94.83l-17.49,45.06h-51.79l90.79-233.37h0ZM1580.81,641.27h59.18l-29.59-76-29.59,76h0Z" fill="#2a62ac" stroke-width="0"/>
        <path d="M1884.13,601.92h32.95v130.13h-103.57c-14.8,0-28.63-2.5-41.53-7.51-12.89-5-24.33-11.74-34.3-20.2-9.97-8.46-18.33-18.39-25.06-29.81-6.73-11.42-11.32-23.63-13.78-36.64-2.47-12.99-2.75-26.29-.84-39.85,1.9-13.56,6.55-26.84,13.95-39.85,7.4-12.99,16.41-23.87,27.07-32.61,10.65-8.74,22.14-15.3,34.47-19.67,12.32-4.37,25.1-6.67,38.33-6.9,13.22-.22,26.12,1.74,38.67,5.88,12.55,4.15,24.27,10.42,35.14,18.83,10.87,8.41,20.12,19,27.75,31.78l-39.34,23.54c-6.95-11.65-15.97-20.35-27.07-26.06-11.09-5.71-22.59-8.46-34.47-8.24-11.89.23-23.32,3.31-34.3,9.24-10.99,5.94-19.85,14.85-26.56,26.73-6.73,11.89-9.81,24.04-9.24,36.49.56,12.45,3.81,23.77,9.76,33.96,5.94,10.2,14.24,18.61,24.88,25.21,10.65,6.61,22.81,9.92,36.49,9.92h58.18v-38.67h-71.29v-45.73h83.74l-.03.02Z" fill="#2a62ac" stroke-width="0"/>
        <path d="M2036.13,498.69h88.1v45.73h-133.16v45.73h110.3v45.73h-110.3v50.44h133.16v45.73h-178.9v-233.37h90.79,0Z" fill="#2a62ac" stroke-width="0"/>
        <path d="M2278.58,590.15v-91.47h45.73v233.37h-45.73l-99.19-148.63v148.63h-45.73v-233.37h45.73l99.19,148.29v-56.84h0Z" fill="#2a62ac" stroke-width="0"/>
        <path d="M2411.75,498.69h51.79l90.79,233.37h-51.79l-17.49-45.06h-94.83l-17.49,45.06h-51.79l90.79-233.37h0ZM2408.04,641.27h59.18l-29.59-76-29.59,76Z" fill="#2a62ac" stroke-width="0"/>
      </g>
      <g>
        <path d="M2695.16,554.85c-8.86-5.6-18.16-9.02-27.9-10.26-9.76-1.23-19.45-.5-29.09,2.19-9.64,2.69-18.33,7.07-26.06,13.11-7.73,6.05-14.01,13.78-18.83,23.21-4.82,9.42-7.23,20.06-7.23,31.94s2.41,22.54,7.23,31.95c4.82,9.42,11.1,17.14,18.83,23.2,7.74,6.05,16.41,10.43,26.06,13.11,9.63,2.69,19.33,3.36,29.09,2.02,9.75-1.35,19.05-4.76,27.9-10.26,8.86-5.49,16.41-13.39,22.7-23.71l39.01,23.54c-6.73,11.22-14.97,20.91-24.71,29.09-9.75,8.18-20.4,14.62-31.95,19.33-11.55,4.71-23.65,7.45-36.32,8.24s-25.39-.62-38.16-4.21c-12.56-3.36-24.1-8.69-34.64-15.97-10.54-7.28-19.56-15.86-27.07-25.73-7.51-9.86-13.34-20.79-17.49-32.78-4.15-11.99-6.22-24.6-6.22-37.83s2.07-25.56,6.22-37.66c4.15-12.11,9.97-23.08,17.49-32.95,7.51-9.86,16.53-18.43,27.07-25.73,10.53-7.28,22.08-12.61,34.64-15.97,12.78-3.58,25.5-4.98,38.16-4.21,12.66.79,24.77,3.48,36.32,8.07,11.55,4.59,22.19,10.99,31.95,19.17,9.75,8.18,17.99,17.89,24.71,29.09l-39.01,23.88c-6.28-10.3-13.85-18.27-22.7-23.88h0Z" fill="#f89b00" stroke-width="0"/>
        <path d="M2866.5,498.69c16.14,0,31.28,3.03,45.4,9.08,14.12,6.05,26.5,14.41,37.16,25.06,10.65,10.65,19,23.04,25.06,37.16,6.05,14.12,9.07,29.26,9.07,45.39s-3.03,31.28-9.07,45.4c-6.04,14.12-14.41,26.46-25.06,36.99-10.65,10.54-23.04,18.89-37.16,25.06-14.12,6.17-29.26,9.24-45.4,9.24s-31.27-3.08-45.39-9.24c-14.12-6.17-26.46-14.51-36.99-25.06-10.54-10.53-18.89-22.87-25.06-36.99-6.17-14.12-9.24-29.26-9.24-45.4s3.08-31.27,9.24-45.39c6.17-14.12,14.51-26.5,25.06-37.16,10.53-10.65,22.87-19,36.99-25.06,14.12-6.05,29.26-9.08,45.39-9.08ZM2866.5,686.33c9.86,0,19.1-1.85,27.75-5.56,8.63-3.7,16.14-8.77,22.52-15.17,6.39-6.41,11.43-13.87,15.14-22.41,3.7-8.54,5.55-17.76,5.55-27.64s-1.85-19.15-5.55-27.8c-3.7-8.65-8.74-16.18-15.14-22.58-6.38-6.41-13.91-11.46-22.52-15.17-8.63-3.7-17.89-5.56-27.75-5.56s-19.06,1.86-27.57,5.56c-8.53,3.7-15.97,8.77-22.37,15.17-6.38,6.41-11.43,13.93-15.13,22.58-3.69,8.65-5.55,17.92-5.55,27.8s1.85,19.1,5.55,27.64c3.7,8.54,8.74,16,15.13,22.41,6.39,6.41,13.84,11.46,22.37,15.17,8.52,3.7,17.7,5.56,27.57,5.56Z" fill="#f89b00" stroke-width="0"/>
        <path d="M3164.44,498.69h45.73v233.37h-45.73v-140.56l-17.82,31.27-45.73,80.71-45.73-80.71-17.82-31.27v140.56h-45.73v-233.37h45.73l42.04,73.98,3.03,5.71,18.49,32.28,18.16-32.28,3.36-5.71,42.04-73.98h-.02Z" fill="#f89b00" stroke-width="0"/>
      </g>
      <g>
        <path d="M2555.82,733.11c-21.18,0-38.41-17.24-38.41-38.41s17.24-38.41,38.41-38.41,38.41,17.24,38.41,38.41-17.24,38.41-38.41,38.41Z" fill="#f89b00" stroke-width="0"/>
        <path d="M2555.82,661.4c18.39,0,33.29,14.9,33.29,33.29s-14.9,33.29-33.29,33.29-33.29-14.9-33.29-33.29,14.9-33.29,33.29-33.29M2555.82,651.14c-24.02,0-43.54,19.54-43.54,43.54s19.54,43.54,43.54,43.54,43.54-19.54,43.54-43.54-19.54-43.54-43.54-43.54h0Z" fill="#fff" stroke-width="0"/>
      </g>
    </g>
  </g>
</svg>